<svg width="43mm" height="297.99mm" version="1.1" viewBox="0 0 43 297.99" xmlns="http://www.w3.org/2000/svg" xmlns:xlink="http://www.w3.org/1999/xlink">
 <defs>
  <linearGradient id="linearGradient2074" x1="1680.6" x2="1693.1" y1="611.95" y2="227.26" gradientTransform="matrix(0 -.26458 -.26458 0 298.18 334.09)" gradientUnits="userSpaceOnUse" xlink:href="#paint0_linear"/>
  <linearGradient id="paint0_linear" x1="1680.6" x2="1693.1" y1="611.95" y2="227.26" gradientUnits="userSpaceOnUse">
   <stop stop-color="#173361" offset="0"/>
   <stop stop-color="#029BDE" offset=".65104"/>
  </linearGradient>
  <linearGradient id="linearGradient2076" x1="1771.7" x2="1810" y1="707.47" y2="271.98" gradientTransform="matrix(0 -.26458 -.26458 0 306.72 341.63)" gradientUnits="userSpaceOnUse" xlink:href="#paint1_linear"/>
  <linearGradient id="paint1_linear" x1="1771.7" x2="1810" y1="707.47" y2="271.98" gradientUnits="userSpaceOnUse">
   <stop stop-color="#173361" offset="0"/>
   <stop stop-color="#029BDE" offset=".65104"/>
  </linearGradient>
  <linearGradient id="linearGradient2078" x1="1664.4" x2="1705.3" y1="634.67" y2="-35.676" gradientTransform="matrix(0 -.26458 -.26458 0 263.52 298.37)" gradientUnits="userSpaceOnUse" xlink:href="#paint2_linear"/>
  <linearGradient id="paint2_linear" x1="1664.4" x2="1705.3" y1="634.67" y2="-35.676" gradientUnits="userSpaceOnUse">
   <stop stop-color="#173361" offset="0"/>
   <stop stop-color="#029BDE" offset=".65104"/>
  </linearGradient>
  <linearGradient id="linearGradient2080" x1="1676.7" x2="1729" y1="684.3" y2="-100.74" gradientTransform="matrix(0 -.26458 -.26458 0 295.34 341.61)" gradientUnits="userSpaceOnUse" xlink:href="#paint3_linear"/>
  <linearGradient id="paint3_linear" x1="1676.7" x2="1729" y1="684.3" y2="-100.74" gradientUnits="userSpaceOnUse">
   <stop stop-color="#173361" offset="0"/>
   <stop stop-color="#029BDE" offset=".65104"/>
  </linearGradient>
  <linearGradient id="linearGradient2082" x1="1690.3" x2="1730.7" y1="679.01" y2="173.52" gradientTransform="matrix(0 -.26458 -.26458 0 292.62 327.74)" gradientUnits="userSpaceOnUse" xlink:href="#paint4_linear"/>
  <linearGradient id="paint4_linear" x1="1690.3" x2="1730.7" y1="679.01" y2="173.52" gradientUnits="userSpaceOnUse">
   <stop stop-color="#173361" offset="0"/>
   <stop stop-color="#029BDE" offset=".65104"/>
  </linearGradient>
  <linearGradient id="linearGradient2084" x1="1577.9" x2="1622.9" y1="662.68" y2="45.176" gradientTransform="matrix(0 -.26458 -.26458 0 276.09 310.64)" gradientUnits="userSpaceOnUse" xlink:href="#paint5_linear"/>
  <linearGradient id="paint5_linear" x1="1577.9" x2="1622.9" y1="662.68" y2="45.176" gradientUnits="userSpaceOnUse">
   <stop stop-color="#173361" offset="0"/>
   <stop stop-color="#029BDE" offset=".65104"/>
  </linearGradient>
 </defs>
 <g transform="translate(-166.98 4.114)">
  <g transform="matrix(.65968 -.034572 .034572 .65968 72.014 75.217)" clip-rule="evenodd" fill-rule="evenodd" stroke-width=".26458">
   <path d="m180.17 106.76c16.737-49.684 44.453-111.47 44.453-179.07h-0.68342c3e-3 67.461-27.661 129.1-44.401 178.8-2.8562 8.478-5.6796 16.861-8.3317 25.239-9.1686 28.962-16.288 57.871-15.593 90.517 0.68977 32.391 16.776 68.772 38.439 112.18-3.6267-7.25-13.814-14.631-16.724-21.484-14.543-34.25-20.463-63.764-21.037-90.714-0.69241-32.516 6.3968-61.328 15.556-90.261 2.6469-8.3622 5.4671-16.734 8.3217-25.208z" fill="url(#linearGradient2074)" opacity=".8"/>
   <path d="m208.17 30.429c7.1996-31.046 12.037-59.574 6.6974-94.17l-2.7374 0.02646c5.3613 34.213 0.60087 62.426-6.5741 93.364-3.6692 15.822-8.2632 31.456-13.054 47.18-0.99431 3.2615-1.9971 6.5289-3.002 9.8036-3.833 12.486-7.6941 25.063-11.205 37.828-8.8675 32.234-15.545 65.794-14.029 102.64 1.4311 34.767 10.155 72.374 31.106 114.5l3.0842-0.0297c-21.29-42.34-30.065-79.953-31.491-114.6-1.4957-36.337 5.0842-69.51 13.91-101.59 3.4967-12.712 7.3393-25.23 11.17-37.711 1.0067-3.2785 2.0127-6.5569 3.0115-9.8335 4.7945-15.735 9.4163-31.459 13.113-47.398z" fill="url(#linearGradient2076)" opacity=".9"/>
   <path d="m151.13 62.505c26.281-70.628 71.301-133.17 102.33-169.48h-0.65347c-31.04 36.391-75.89 98.806-102.11 169.28-28.596 76.847-13.699 196.7 44.122 269.43 0 0-1.2798-1.5249 0 0-57.951-72.596-72.288-192.36-43.683-269.23z" fill="url(#linearGradient2078)" opacity=".95"/>
   <path d="m278.89-48.087c6.5226-7.0432 12.104-12.377 16.315-15.751h-2.3276c-4.1052 3.4555-9.2299 8.4402-15.056 14.735-8.8228 9.5303-19.3 22.109-30.355 37.05-22.11 29.882-46.556 69.236-64.721 112.57-32.714 78.043-47.954 169.21 10.669 241.08l1.9616 1.9e-4c-1.3398-1.5223-0.0511-2.4e-4 -0.0511-2.4e-4 -58.995-71.396-44.007-162.31-11.23-240.5 18.108-43.2 42.487-82.451 64.544-112.26 11.028-14.904 21.47-27.443 30.252-36.928z" fill="url(#linearGradient2080)" opacity=".95"/>
   <path d="m210.52 14.586c11.759-32.239 20.494-63.177 18.957-92.456h-4.9787c1.5486 28.162-6.8466 58.298-18.616 90.57-4.2717 11.713-9.0001 23.73-13.831 36.012-8.5971 21.854-17.52 44.535-24.772 67.782-11.37 36.443-18.823 74.775-14.875 114.78 3.0858 31.271 21.047 73.568 41.458 106.58l0.19366-3.4332c-21.223-33.37-33.62-72.403-36.707-103.69-3.8462-38.98 3.3946-76.513 14.652-112.59 7.2054-23.096 15.981-45.396 24.523-67.103 4.8519-12.327 9.6282-24.466 13.998-36.449z" fill="url(#linearGradient2082)" opacity=".9"/>
   <path d="m232.95-70.741c4.2029-8.5143 7.6692-16.338 10.093-23.389h-1.343c-2.3873 6.8554-5.7698 14.481-9.8803 22.804-5.9296 12.012-13.354 25.442-21.449 40.084l-0.0225 0.03969c-16.179 29.266-31.332 62.505-46.143 99.574-29.356 73.472-24.672 186.31 29.655 269.48l-1.4258-1.1705c-54.541-82.888-56.423-194.33-27.057-267.82 14.781-36.995 29.901-70.174 46.088-99.452l8e-3 -0.01323c8.091-14.637 15.532-28.096 21.477-40.137z" fill="url(#linearGradient2084)" opacity=".95"/>
   <path d="m180.17 106.76c16.737-49.684 44.453-111.47 44.453-179.07h-0.68342c3e-3 67.461-27.661 129.1-44.401 178.8-2.8562 8.478-5.6796 16.861-8.3317 25.239-9.1686 28.962-16.288 57.871-15.593 90.517 0.68977 32.391 16.776 68.772 38.439 112.18-3.6267-7.25-13.814-14.631-16.724-21.484-14.543-34.25-20.463-63.764-21.037-90.714-0.69241-32.516 6.3968-61.328 15.556-90.261 2.6469-8.3622 5.4671-16.734 8.3217-25.208z" fill="url(#linearGradient2074)" opacity=".8"/>
   <path d="m208.17 30.429c7.1996-31.046 12.037-59.574 6.6974-94.17l-2.7374 0.02646c5.3613 34.213 0.60087 62.426-6.5741 93.364-3.6692 15.822-8.2632 31.456-13.054 47.18-0.99431 3.2615-1.9971 6.5289-3.002 9.8036-3.833 12.486-7.6941 25.063-11.205 37.828-8.8675 32.234-15.545 65.794-14.029 102.64 1.4311 34.767 10.155 72.374 31.106 114.5l3.0842-0.0297c-21.29-42.34-30.065-79.953-31.491-114.6-1.4957-36.337 5.0842-69.51 13.91-101.59 3.4967-12.712 7.3393-25.23 11.17-37.711 1.0067-3.2785 2.0127-6.5569 3.0115-9.8335 4.7945-15.735 9.4163-31.459 13.113-47.398z" fill="url(#linearGradient2076)" opacity=".9"/>
   <path d="m151.13 62.505c26.281-70.628 71.301-133.17 102.33-169.48h-0.65347c-31.04 36.391-75.89 98.806-102.11 169.28-28.596 76.847-13.699 196.7 44.122 269.43 0 0-1.2798-1.5249 0 0-57.951-72.596-72.288-192.36-43.683-269.23z" fill="url(#linearGradient2078)" opacity=".95"/>
   <path d="m278.89-48.087c6.5226-7.0432 12.104-12.377 16.315-15.751h-2.3276c-4.1052 3.4555-9.2299 8.4402-15.056 14.735-8.8228 9.5303-19.3 22.109-30.355 37.05-22.11 29.882-46.556 69.236-64.721 112.57-32.714 78.043-47.954 169.21 10.669 241.08l1.9616 1.9e-4c-1.3398-1.5223-0.0511-2.4e-4 -0.0511-2.4e-4 -58.995-71.396-44.007-162.31-11.23-240.5 18.108-43.2 42.487-82.451 64.544-112.26 11.028-14.904 21.47-27.443 30.252-36.928z" fill="url(#linearGradient2080)" opacity=".95"/>
   <path d="m210.52 14.586c11.759-32.239 20.494-63.177 18.957-92.456h-4.9787c1.5486 28.162-6.8466 58.298-18.616 90.57-4.2717 11.713-9.0001 23.73-13.831 36.012-8.5971 21.854-17.52 44.535-24.772 67.782-11.37 36.443-18.823 74.775-14.875 114.78 3.0858 31.271 21.047 73.568 41.458 106.58l0.19366-3.4332c-21.223-33.37-33.62-72.403-36.707-103.69-3.8462-38.98 3.3946-76.513 14.652-112.59 7.2054-23.096 15.981-45.396 24.523-67.103 4.8519-12.327 9.6282-24.466 13.998-36.449z" fill="url(#linearGradient2082)" opacity=".9"/>
   <path d="m232.95-70.741c4.2029-8.5143 7.6692-16.338 10.093-23.389h-1.343c-2.3873 6.8554-5.7698 14.481-9.8803 22.804-5.9296 12.012-13.354 25.442-21.449 40.084l-0.0225 0.03969c-16.179 29.266-31.332 62.505-46.143 99.574-29.356 73.472-24.672 186.31 29.655 269.48l-1.4258-1.1705c-54.541-82.888-56.423-194.33-27.057-267.82 14.781-36.995 29.901-70.174 46.088-99.452l8e-3 -0.01323c8.091-14.637 15.532-28.096 21.477-40.137z" fill="url(#linearGradient2084)" opacity=".95"/>
  </g>
 </g>
</svg>
