<svg width="76.075mm" height="293.47mm" version="1.1" viewBox="0 0 76.075 293.47" xmlns="http://www.w3.org/2000/svg" xmlns:xlink="http://www.w3.org/1999/xlink">
 <defs>
  <linearGradient id="linearGradient2074" x1="1680.6" x2="1693.1" y1="611.95" y2="227.26" gradientTransform="matrix(0 -.26458 -.26458 0 298.18 334.09)" gradientUnits="userSpaceOnUse">
   <stop stop-color="#173361" offset="0"/>
   <stop stop-color="#029BDE" offset=".65104"/>
  </linearGradient>
  <linearGradient id="linearGradient2076" x1="1771.7" x2="1810" y1="707.47" y2="271.98" gradientTransform="matrix(0 -.26458 -.26458 0 306.72 341.63)" gradientUnits="userSpaceOnUse">
   <stop stop-color="#173361" offset="0"/>
   <stop stop-color="#029BDE" offset=".65104"/>
  </linearGradient>
  <linearGradient id="linearGradient2080" x1="1676.7" x2="1729" y1="684.3" y2="-100.74" gradientTransform="matrix(0 -.26458 -.26458 0 295.34 341.61)" gradientUnits="userSpaceOnUse">
   <stop stop-color="#173361" offset="0"/>
   <stop stop-color="#029BDE" offset=".65104"/>
  </linearGradient>
  <linearGradient id="linearGradient2082" x1="1690.3" x2="1730.7" y1="679.01" y2="173.52" gradientTransform="matrix(0 -.26458 -.26458 0 292.62 327.74)" gradientUnits="userSpaceOnUse">
   <stop stop-color="#173361" offset="0"/>
   <stop stop-color="#029BDE" offset=".65104"/>
  </linearGradient>
  <linearGradient id="linearGradient2084" x1="1577.9" x2="1622.9" y1="662.68" y2="45.176" gradientTransform="matrix(0 -.26458 -.26458 0 276.09 310.64)" gradientUnits="userSpaceOnUse">
   <stop stop-color="#173361" offset="0"/>
   <stop stop-color="#029BDE" offset=".65104"/>
  </linearGradient>
 </defs>
 <g transform="translate(-152.78 -6.6689)">
  <g transform="matrix(.65968 -.034572 .034572 .65968 72.014 75.217)">
   <g transform="matrix(-.96126 -.27564 -.27564 .96126 393.42 71.837)" clip-rule="evenodd" fill-rule="evenodd" stroke-width=".26458">
    <path d="m180.17 106.76c16.737-49.684 46.639-181.87 96.718-180.39-50.863-2.1416-80.609 130.42-97.349 180.12-2.8562 8.478-5.6796 16.861-8.3317 25.239-9.1686 28.962-16.288 57.871-15.593 90.517 0.68977 32.391 16.776 68.772 38.439 112.18-3.6267-7.25-13.814-14.631-16.724-21.484-14.543-34.25-20.463-63.764-21.037-90.714-0.69241-32.516 6.3968-61.328 15.556-90.261 2.6469-8.3622 5.4671-16.734 8.3217-25.208z" fill="url(#linearGradient2074)" opacity=".8"/>
    <path d="m294.22-54.696c-73.311 12.094-85.167 77.122-101.72 131.52-0.99431 3.2615-1.9971 6.5289-3.002 9.8036-3.833 12.486-7.6941 25.063-11.205 37.828-8.8675 32.234-15.545 65.794-14.029 102.64 1.4311 34.767 10.155 72.374 31.106 114.5l3.0842-0.0297c-21.29-42.34-30.065-79.953-31.491-114.6-1.4957-36.337 5.0842-69.51 13.91-101.59 3.4967-12.712 7.3393-25.23 11.17-37.711 1.0067-3.2785 2.0127-6.5569 3.0115-9.8335 12.859-50.247 51.635-139.85 99.162-132.52z" fill="url(#linearGradient2076)" opacity=".9"/>
    <path d="m278.89-48.087c6.5226-7.0432 12.104-12.377 16.315-15.751h-2.3276c-4.1052 3.4555-9.2299 8.4402-15.056 14.735-8.8228 9.5303-19.3 22.109-30.355 37.05-22.11 29.882-46.556 69.236-64.721 112.57-32.714 78.043-47.954 169.21 10.669 241.08l1.9616 1.9e-4c-1.3398-1.5223-0.0511-2.4e-4 -0.0511-2.4e-4 -58.995-71.396-44.007-162.31-11.23-240.5 18.108-43.2 42.487-82.451 64.544-112.26 11.028-14.904 21.47-27.443 30.252-36.928z" fill="url(#linearGradient2080)" opacity=".95"/>
    <path d="m295.2-63.838c-56.14 56.306-105.59 109.38-127.93 180.33-11.37 36.443-18.823 74.775-14.875 114.78 3.0858 31.271 21.047 73.568 41.458 106.58l0.19366-3.4332c-21.223-33.37-33.62-72.403-36.707-103.69-3.8462-38.98 1.4227-77.309 12.68-113.39 7.4098-80.371 68.421-124.33 125.18-181.18z" fill="url(#linearGradient2082)" opacity=".9"/>
    <path d="m193.86 337.86-1.4258-1.1705c-59.658-106.68-47.087-204.49-11.351-297.61 18.136-76.149 66.345-75.37 110.45-81.418-67.02 3.2718-90.236 13.844-112.97 80.812-35.205 104.26-34.178 219.94 15.301 299.39z" fill="url(#linearGradient2084)" opacity=".95"/>
   </g>
  </g>
 </g>
</svg>
