<?xml version="1.0" encoding="UTF-8" standalone="no"?>
<svg
   width="1703.3699"
   height="534.41864"
   viewBox="0 0 1703.3699 534.41864"
   fill="none"
   version="1.1"
   id="svg1202"
   sodipodi:docname="blue-violet-hero.svg"
   inkscape:version="1.1.1 (3bf5ae0d25, 2021-09-20)"
   xmlns:inkscape="http://www.inkscape.org/namespaces/inkscape"
   xmlns:sodipodi="http://sodipodi.sourceforge.net/DTD/sodipodi-0.dtd"
   xmlns:xlink="http://www.w3.org/1999/xlink"
   xmlns="http://www.w3.org/2000/svg"
   xmlns:svg="http://www.w3.org/2000/svg">
  <sodipodi:namedview
     id="namedview1204"
     pagecolor="#ffffff"
     bordercolor="#666666"
     borderopacity="1.0"
     inkscape:pageshadow="2"
     inkscape:pageopacity="0.0"
     inkscape:pagecheckerboard="0"
     showgrid="false"
     fit-margin-top="0"
     fit-margin-left="0"
     fit-margin-right="0"
     fit-margin-bottom="0"
     inkscape:zoom="0.26999878"
     inkscape:cx="757.41083"
     inkscape:cy="125.92649"
     inkscape:window-width="1500"
     inkscape:window-height="978"
     inkscape:window-x="-6"
     inkscape:window-y="-6"
     inkscape:window-maximized="1"
     inkscape:current-layer="svg1202" />
  <g
     id="g1782"
     transform="rotate(-90,767.72629,269.25432)">
    <path
       opacity="0.8"
       fill-rule="evenodd"
       clip-rule="evenodd"
       d="m 730.4871,317.3021 c 63.259,-187.782 168.013,-421.302 168.013,-676.802 h -2.583 c 0.013,254.97 -104.545,487.93 -167.816,675.781 -10.795,32.043 -21.466,63.725 -31.49,95.393 -34.653,109.463 -61.561,218.724 -58.934,342.11 2.607,122.423 34.288,258.648 116.165,422.716 h 2.914 c -82.209,-164.342 -113.914,-300.541 -116.517,-422.781 -2.617,-122.896 24.177,-231.79 58.796,-341.143 10.004,-31.605 20.663,-63.245 31.452,-95.274 z"
       fill="url(#paint0_linear)"
       id="path1649"
       style="fill:url(#linearGradient1798)" />
    <path
       opacity="0.9"
       fill-rule="evenodd"
       clip-rule="evenodd"
       d="m 836.33088,28.818485 c 27.211,-117.34 45.495,-225.160005 25.313,-355.920005 l -10.346,0.1 c 20.263,129.31 2.271,235.940005 -24.847,352.870005 -13.868,59.8 -31.231,118.889995 -49.339,178.319995 -3.758,12.327 -7.548,24.676 -11.346,37.053 -14.487,47.192 -29.08,94.727 -42.35,142.971 -33.515,121.83 -58.754,248.672 -53.023,387.926 5.409,131.403 38.38,273.54102 117.566,432.75942 l 11.657,-0.1123 c -80.468,-160.0241 -113.631,-302.18512 -119.022,-433.15112 -5.653,-137.335 19.216,-262.714 52.575,-383.981 13.216,-48.047 27.739,-95.358 42.219,-142.528 3.805,-12.391 7.607,-24.782 11.382,-37.166 18.121,-59.471 35.589,-118.900995 49.561,-179.140995 z"
       fill="url(#paint1_linear)"
       id="path1646"
       style="fill:url(#linearGradient1800)" />
    <path
       opacity="0.95"
       fill-rule="evenodd"
       clip-rule="evenodd"
       d="m 620.75297,150.04897 c 99.328,-266.939 269.483,-503.319 386.74703,-640.549 h -2.4698 c -117.31823,137.54 -286.82823,373.44 -385.93723,639.792 -108.078,290.446 -146.073,617.308 72.466,892.20803 0,0 -4.897,-5.7639 -0.06,-6e-4 l 2.453,5e-4 c -219.029,-274.37993 -181.313,-600.90693 -73.199,-891.45093 z"
       fill="url(#paint2_linear)"
       id="path1643"
       style="fill:url(#linearGradient1802)" />
    <path
       opacity="0.95"
       fill-rule="evenodd"
       clip-rule="evenodd"
       d="m 975.31883,-438.94197 c 24.6522,-26.62 45.74727,-46.78 61.66177,-59.53 h -8.7972 c -15.5156,13.06 -34.88467,31.9 -56.90577,55.69 -33.346,36.02 -72.943,83.56 -114.729,140.03 -83.567,112.94 -175.96,261.68 -244.614,425.469 -123.642,294.965 -181.245,639.547 40.325,911.17287 l 7.414,7e-4 c -5.064,-5.7534 -0.193,-9e-4 -0.193,-9e-4 -222.972,-269.84367 -166.325,-613.43967 -42.445,-908.97467 68.441,-163.277 160.582,-311.627 243.946,-424.287 41.68,-56.33 81.148,-103.72 114.3372,-139.57 z"
       fill="url(#paint3_linear)"
       id="path1640"
       style="fill:url(#linearGradient1804)" />
    <path
       opacity="0.9"
       fill-rule="evenodd"
       clip-rule="evenodd"
       d="m 845.18902,-31.059977 c 44.445,-121.850003 77.457,-238.780003 71.647,-349.440003 h -18.817 c 5.853,106.44 -25.877,220.34 -70.36,342.310003 -16.145,44.2699997 -34.016,89.69 -52.275,136.11 -32.493,82.596997 -66.216,168.319997 -93.628,256.183997 -42.973,137.739 -71.141,282.615 -56.22,433.828 11.663,118.189 49.603,239.79898 126.745,364.56788 l 22.535,10e-5 c -80.212,-126.121 -118.926,-248.37398 -130.595,-366.62598 -14.537,-147.327 12.83,-289.184 55.377,-425.556 27.233,-87.292 60.401,-171.577 92.684,-253.618 18.338,-46.589997 36.39,-92.469997 52.907,-137.759997 z"
       fill="url(#paint4_linear)"
       id="path1637"
       style="fill:url(#linearGradient1806)" />
    <path
       opacity="0.95"
       fill-rule="evenodd"
       clip-rule="evenodd"
       d="m 929.96949,-353.55551 c 15.885,-32.18 28.986,-61.75 38.146,-88.4 h -5.076 c -9.023,25.91 -21.807,54.73 -37.343,86.19 -22.411,45.4 -50.472,96.16 -81.068,151.5 l -0.085,0.15 c -61.149,110.609999 -118.421,236.239999 -174.4,376.344 -110.951,277.69 -162.277,600.302 43.054,914.65561 l 5.761,4e-4 c -206.14,-313.27701 -155.374,-635.02001 -44.384,-912.80701 55.864,-139.823001 113.012,-265.223001 174.191,-375.883 l 0.03,-0.05 c 30.58,-55.32 58.702,-106.19 81.174,-151.7 z"
       fill="url(#paint5_linear)"
       id="path1634"
       style="fill:url(#linearGradient1808)" />
  </g>
  <defs
     id="defs1200">
    <linearGradient
       id="paint0_linear"
       x1="1680.59"
       y1="611.95398"
       x2="1693.08"
       y2="227.263"
       gradientUnits="userSpaceOnUse"
       gradientTransform="matrix(0,-1,-1,0,1176.5001,1176.5001)">
      <stop
         stop-color="#173361"
         id="stop1165" />
      <stop
         offset="0.651042"
         stop-color="#029BDE"
         id="stop1167" />
    </linearGradient>
    <linearGradient
       id="paint1_linear"
       x1="1771.6801"
       y1="707.47302"
       x2="1810.01"
       y2="271.98001"
       gradientUnits="userSpaceOnUse"
       gradientTransform="matrix(0,-1,-1,0,1208.7979,1204.9985)">
      <stop
         stop-color="#173361"
         id="stop1170" />
      <stop
         offset="0.651042"
         stop-color="#029BDE"
         id="stop1172" />
    </linearGradient>
    <linearGradient
       id="paint2_linear"
       x1="1664.4"
       y1="634.66699"
       x2="1705.33"
       y2="-35.6763"
       gradientUnits="userSpaceOnUse"
       gradientTransform="matrix(0,-1,-1,0,1045.5,1041.5)">
      <stop
         stop-color="#173361"
         id="stop1175" />
      <stop
         offset="0.651042"
         stop-color="#029BDE"
         id="stop1177" />
    </linearGradient>
    <linearGradient
       id="paint3_linear"
       x1="1676.66"
       y1="684.297"
       x2="1728.95"
       y2="-100.735"
       gradientUnits="userSpaceOnUse"
       gradientTransform="matrix(0,-1,-1,0,1037.4806,1033.938)">
      <stop
         stop-color="#173361"
         id="stop1180" />
      <stop
         offset="0.651042"
         stop-color="#029BDE"
         id="stop1182" />
    </linearGradient>
    <linearGradient
       id="paint4_linear"
       x1="1690.33"
       y1="679.008"
       x2="1730.7"
       y2="173.515"
       gradientUnits="userSpaceOnUse"
       gradientTransform="matrix(0,-1,-1,0,1155.5,1152.5)">
      <stop
         stop-color="#173361"
         id="stop1185" />
      <stop
         offset="0.651042"
         stop-color="#029BDE"
         id="stop1187" />
    </linearGradient>
    <linearGradient
       id="paint5_linear"
       x1="1577.88"
       y1="662.67902"
       x2="1622.9301"
       y2="45.1758"
       gradientUnits="userSpaceOnUse"
       gradientTransform="matrix(0,-1,-1,0,1093.0445,1087.8845)">
      <stop
         stop-color="#173361"
         id="stop1190" />
      <stop
         offset="0.651042"
         stop-color="#029BDE"
         id="stop1192" />
    </linearGradient>
    <linearGradient
       id="paint6_linear"
       x1="1816.67"
       y1="697.69598"
       x2="1846.48"
       y2="289.586"
       gradientUnits="userSpaceOnUse">
      <stop
         stop-color="#F61B84"
         id="stop1195" />
      <stop
         offset="0.651042"
         stop-color="#029BDE"
         id="stop1197" />
    </linearGradient>
    <linearGradient
       inkscape:collect="always"
       xlink:href="#paint0_linear"
       id="linearGradient1798"
       gradientUnits="userSpaceOnUse"
       gradientTransform="matrix(0,-1,-1,0,1176.5001,1176.5001)"
       x1="1680.59"
       y1="611.95398"
       x2="1693.08"
       y2="227.263" />
    <linearGradient
       inkscape:collect="always"
       xlink:href="#paint1_linear"
       id="linearGradient1800"
       gradientUnits="userSpaceOnUse"
       gradientTransform="matrix(0,-1,-1,0,1208.7979,1204.9985)"
       x1="1771.6801"
       y1="707.47302"
       x2="1810.01"
       y2="271.98001" />
    <linearGradient
       inkscape:collect="always"
       xlink:href="#paint2_linear"
       id="linearGradient1802"
       gradientUnits="userSpaceOnUse"
       gradientTransform="matrix(0,-1,-1,0,1045.5,1041.5)"
       x1="1664.4"
       y1="634.66699"
       x2="1705.33"
       y2="-35.6763" />
    <linearGradient
       inkscape:collect="always"
       xlink:href="#paint3_linear"
       id="linearGradient1804"
       gradientUnits="userSpaceOnUse"
       gradientTransform="matrix(0,-1,-1,0,1037.4806,1033.938)"
       x1="1676.66"
       y1="684.297"
       x2="1728.95"
       y2="-100.735" />
    <linearGradient
       inkscape:collect="always"
       xlink:href="#paint4_linear"
       id="linearGradient1806"
       gradientUnits="userSpaceOnUse"
       gradientTransform="matrix(0,-1,-1,0,1155.5,1152.5)"
       x1="1690.33"
       y1="679.008"
       x2="1730.7"
       y2="173.515" />
    <linearGradient
       inkscape:collect="always"
       xlink:href="#paint5_linear"
       id="linearGradient1808"
       gradientUnits="userSpaceOnUse"
       gradientTransform="matrix(0,-1,-1,0,1093.0445,1087.8845)"
       x1="1577.88"
       y1="662.67902"
       x2="1622.9301"
       y2="45.1758" />
    <linearGradient
       inkscape:collect="always"
       xlink:href="#paint0_linear"
       id="linearGradient1810"
       gradientUnits="userSpaceOnUse"
       gradientTransform="matrix(0,-1,-1,0,1176.5001,1176.5001)"
       x1="1680.59"
       y1="611.95398"
       x2="1693.08"
       y2="227.263" />
    <linearGradient
       inkscape:collect="always"
       xlink:href="#paint1_linear"
       id="linearGradient1812"
       gradientUnits="userSpaceOnUse"
       gradientTransform="matrix(0,-1,-1,0,1208.7979,1204.9985)"
       x1="1771.6801"
       y1="707.47302"
       x2="1810.01"
       y2="271.98001" />
    <linearGradient
       inkscape:collect="always"
       xlink:href="#paint2_linear"
       id="linearGradient1814"
       gradientUnits="userSpaceOnUse"
       gradientTransform="matrix(0,-1,-1,0,1045.5,1041.5)"
       x1="1664.4"
       y1="634.66699"
       x2="1705.33"
       y2="-35.6763" />
    <linearGradient
       inkscape:collect="always"
       xlink:href="#paint3_linear"
       id="linearGradient1816"
       gradientUnits="userSpaceOnUse"
       gradientTransform="matrix(0,-1,-1,0,1037.4806,1033.938)"
       x1="1676.66"
       y1="684.297"
       x2="1728.95"
       y2="-100.735" />
    <linearGradient
       inkscape:collect="always"
       xlink:href="#paint4_linear"
       id="linearGradient1818"
       gradientUnits="userSpaceOnUse"
       gradientTransform="matrix(0,-1,-1,0,1155.5,1152.5)"
       x1="1690.33"
       y1="679.008"
       x2="1730.7"
       y2="173.515" />
    <linearGradient
       inkscape:collect="always"
       xlink:href="#paint5_linear"
       id="linearGradient1820"
       gradientUnits="userSpaceOnUse"
       gradientTransform="matrix(0,-1,-1,0,1093.0445,1087.8845)"
       x1="1577.88"
       y1="662.67902"
       x2="1622.9301"
       y2="45.1758" />
  </defs>
  <g
     id="g1796"
     transform="rotate(-90,767.72629,269.25432)">
    <path
       opacity="0.8"
       fill-rule="evenodd"
       clip-rule="evenodd"
       d="m 730.4871,317.3021 c 63.259,-187.782 168.013,-421.302 168.013,-676.802 h -2.583 c 0.013,254.97 -104.545,487.93 -167.816,675.781 -10.795,32.043 -21.466,63.725 -31.49,95.393 -34.653,109.463 -61.561,218.724 -58.934,342.11 2.607,122.423 34.288,258.648 116.165,422.716 h 2.914 c -82.209,-164.342 -113.914,-300.541 -116.517,-422.781 -2.617,-122.896 24.177,-231.79 58.796,-341.143 10.004,-31.605 20.663,-63.245 31.452,-95.274 z"
       fill="url(#paint0_linear)"
       id="path1784"
       style="fill:url(#linearGradient1810)" />
    <path
       opacity="0.9"
       fill-rule="evenodd"
       clip-rule="evenodd"
       d="m 836.33088,28.818485 c 27.211,-117.34 45.495,-225.160005 25.313,-355.920005 l -10.346,0.1 c 20.263,129.31 2.271,235.940005 -24.847,352.870005 -13.868,59.8 -31.231,118.889995 -49.339,178.319995 -3.758,12.327 -7.548,24.676 -11.346,37.053 -14.487,47.192 -29.08,94.727 -42.35,142.971 -33.515,121.83 -58.754,248.672 -53.023,387.926 5.409,131.403 38.38,273.54102 117.566,432.75942 l 11.657,-0.1123 c -80.468,-160.0241 -113.631,-302.18512 -119.022,-433.15112 -5.653,-137.335 19.216,-262.714 52.575,-383.981 13.216,-48.047 27.739,-95.358 42.219,-142.528 3.805,-12.391 7.607,-24.782 11.382,-37.166 18.121,-59.471 35.589,-118.900995 49.561,-179.140995 z"
       fill="url(#paint1_linear)"
       id="path1786"
       style="fill:url(#linearGradient1812)" />
    <path
       opacity="0.95"
       fill-rule="evenodd"
       clip-rule="evenodd"
       d="m 620.75297,150.04897 c 99.328,-266.939 269.483,-503.319 386.74703,-640.549 h -2.4698 c -117.31823,137.54 -286.82823,373.44 -385.93723,639.792 -108.078,290.446 -146.073,617.308 72.466,892.20803 0,0 -4.897,-5.7639 -0.06,-6e-4 l 2.453,5e-4 c -219.029,-274.37993 -181.313,-600.90693 -73.199,-891.45093 z"
       fill="url(#paint2_linear)"
       id="path1788"
       style="fill:url(#linearGradient1814)" />
    <path
       opacity="0.95"
       fill-rule="evenodd"
       clip-rule="evenodd"
       d="m 975.31883,-438.94197 c 24.6522,-26.62 45.74727,-46.78 61.66177,-59.53 h -8.7972 c -15.5156,13.06 -34.88467,31.9 -56.90577,55.69 -33.346,36.02 -72.943,83.56 -114.729,140.03 -83.567,112.94 -175.96,261.68 -244.614,425.469 -123.642,294.965 -181.245,639.547 40.325,911.17287 l 7.414,7e-4 c -5.064,-5.7534 -0.193,-9e-4 -0.193,-9e-4 -222.972,-269.84367 -166.325,-613.43967 -42.445,-908.97467 68.441,-163.277 160.582,-311.627 243.946,-424.287 41.68,-56.33 81.148,-103.72 114.3372,-139.57 z"
       fill="url(#paint3_linear)"
       id="path1790"
       style="fill:url(#linearGradient1816)" />
    <path
       opacity="0.9"
       fill-rule="evenodd"
       clip-rule="evenodd"
       d="m 845.18902,-31.059977 c 44.445,-121.850003 77.457,-238.780003 71.647,-349.440003 h -18.817 c 5.853,106.44 -25.877,220.34 -70.36,342.310003 -16.145,44.2699997 -34.016,89.69 -52.275,136.11 -32.493,82.596997 -66.216,168.319997 -93.628,256.183997 -42.973,137.739 -71.141,282.615 -56.22,433.828 11.663,118.189 49.603,239.79898 126.745,364.56788 l 22.535,10e-5 c -80.212,-126.121 -118.926,-248.37398 -130.595,-366.62598 -14.537,-147.327 12.83,-289.184 55.377,-425.556 27.233,-87.292 60.401,-171.577 92.684,-253.618 18.338,-46.589997 36.39,-92.469997 52.907,-137.759997 z"
       fill="url(#paint4_linear)"
       id="path1792"
       style="fill:url(#linearGradient1818)" />
    <path
       opacity="0.95"
       fill-rule="evenodd"
       clip-rule="evenodd"
       d="m 929.96949,-353.55551 c 15.885,-32.18 28.986,-61.75 38.146,-88.4 h -5.076 c -9.023,25.91 -21.807,54.73 -37.343,86.19 -22.411,45.4 -50.472,96.16 -81.068,151.5 l -0.085,0.15 c -61.149,110.609999 -118.421,236.239999 -174.4,376.344 -110.951,277.69 -162.277,600.302 43.054,914.65561 l 5.761,4e-4 c -206.14,-313.27701 -155.374,-635.02001 -44.384,-912.80701 55.864,-139.823001 113.012,-265.223001 174.191,-375.883 l 0.03,-0.05 c 30.58,-55.32 58.702,-106.19 81.174,-151.7 z"
       fill="url(#paint5_linear)"
       id="path1794"
       style="fill:url(#linearGradient1820)" />
  </g>
</svg>
